<?xml version="1.0" standalone="no"?>
<svg xmlns="http://www.w3.org/2000/svg" viewBox="0 0 139.5 29" width="139.5" height="29"><path fill="#000000" fill-rule="nonzero" d="M6.96 5.76L6.96 8.14L4.42 8.14L4.42 18.94L1.30 18.94L1.30 8.14L0 8.14L0 5.76L1.30 5.76L1.30 4.44Q1.30 2.98 2.23 1.92Q3.17 0.86 4.94 0.86L4.94 0.86L6.96 0.86L6.96 3.50L5.50 3.50Q4.42 3.50 4.42 4.63L4.42 4.63L4.42 5.76L6.96 5.76ZM10.94 0Q12.07 0 12.41 0.35Q12.74 0.70 12.74 1.81Q12.74 2.93 12.40 3.28Q12.05 3.62 10.93 3.62Q9.82 3.62 9.47 3.26Q9.12 2.90 9.12 1.80Q9.12 0.70 9.47 0.35Q9.82 0 10.94 0ZM12.48 5.74L12.48 18.94L9.36 18.94L9.36 5.74L12.48 5.74ZM26.59 9.74L26.59 18.94L23.47 18.94L23.47 10.18Q23.47 9 22.99 8.57Q22.51 8.14 21.65 8.14L21.65 8.14L18.84 9.31L18.84 18.94L15.72 18.94L15.72 5.23L18.05 5.23L18.77 6.86L22.61 5.09Q24.22 5.09 25.40 6.28Q26.59 7.46 26.59 9.74L26.59 9.74ZM39.14 5.14L39.14 18.94L37.06 18.94L36.10 17.28L32.76 19.08Q29.98 19.08 29.02 17.06L29.02 17.06Q28.54 16.08 28.36 14.94Q28.18 13.80 28.18 12.56Q28.18 11.33 28.20 10.74Q28.22 10.15 28.32 9.37Q28.42 8.59 28.60 8.06Q28.78 7.54 29.11 6.97Q29.45 6.41 29.93 6.07L29.93 6.07Q31.01 5.33 32.74 5.33L32.74 5.33L36.02 5.33L39.14 5.14ZM33.65 15.79L36.02 14.57L36.02 8.14L33.65 8.14Q32.33 8.14 31.81 9.14Q31.30 10.15 31.30 12.16Q31.30 14.16 31.79 14.98Q32.28 15.79 33.65 15.79L33.65 15.79ZM53.16 9.74L53.16 18.94L50.04 18.94L50.04 10.18Q50.04 9 49.56 8.57Q49.08 8.14 48.22 8.14L48.22 8.14L45.41 9.31L45.41 18.94L42.29 18.94L42.29 5.23L44.62 5.23L45.34 6.86L49.18 5.09Q50.78 5.09 51.97 6.28Q53.16 7.46 53.16 9.74L53.16 9.74ZM63.29 13.92L63.29 13.92L66.12 13.90Q66.10 14.09 66.07 14.59Q66.05 15.10 66.04 15.28Q66.02 15.46 65.98 15.84Q65.93 16.22 65.87 16.40Q65.81 16.58 65.71 16.87L65.71 16.87Q65.28 18.12 63.36 18.84L63.36 18.84Q62.14 19.27 60.80 19.27Q59.47 19.27 58.39 18.84Q57.31 18.41 56.69 17.74L56.69 17.74Q55.27 16.25 55.27 12.16Q55.27 8.06 56.69 6.58L56.69 6.58Q57.31 5.90 58.39 5.47Q59.47 5.04 60.79 5.04L60.79 5.04Q63.38 5.04 64.73 6.34Q66.07 7.63 66.07 9.94L66.07 9.94L63.24 9.94Q63.24 8.88 62.71 8.36Q62.18 7.85 60.76 7.85Q59.33 7.85 58.86 8.74Q58.39 9.62 58.39 11.40L58.39 11.40L58.39 12.65Q58.39 15.50 59.50 16.15L59.50 16.15Q60.00 16.46 60.82 16.46Q61.63 16.46 62.15 16.31Q62.66 16.15 62.89 15.77Q63.12 15.38 63.19 15.01Q63.26 14.64 63.29 13.92ZM79.01 12.82L79.01 12.82L71.02 12.82Q71.02 14.69 71.60 15.55Q72.19 16.42 73.97 16.42L73.97 16.42Q75.12 16.42 75.67 15.68Q76.22 14.95 76.22 14.28L76.22 14.28L79.03 14.28Q79.03 16.85 77.65 18.05Q76.27 19.25 74.00 19.25Q71.74 19.25 70.49 18.60L70.49 18.60Q67.92 17.28 67.92 11.59L67.92 11.59Q67.92 8.21 69.38 6.64Q70.85 5.06 73.85 5.06L73.85 5.06Q79.06 5.06 79.06 10.85L79.06 10.85Q79.06 11.47 79.01 12.82ZM71.09 10.68L71.09 10.68L76.22 10.68Q76.22 9.10 75.62 8.38Q75.02 7.66 73.79 7.66Q72.55 7.66 71.82 8.39Q71.09 9.12 71.09 10.68ZM89.30 12.74L89.30 12.74L89.30 11.50Q89.30 9.72 88.79 8.78Q88.27 7.85 86.64 7.85L86.64 7.85Q84.00 7.85 84.00 11.40L84.00 11.40L84.00 12.65Q84.00 16.46 86.64 16.46L86.64 16.46Q88.34 16.46 88.87 15.19L88.87 15.19Q89.30 14.18 89.30 12.74ZM92.42 12.02L92.42 12.02Q92.42 16.46 90.74 17.98L90.74 17.98Q89.33 19.27 86.64 19.27L86.64 19.27Q83.21 19.27 82.01 17.26L82.01 17.26Q80.88 15.41 80.88 12.02L80.88 12.02Q80.88 8.86 82.01 7.06L82.01 7.06Q83.26 5.04 86.56 5.04Q89.86 5.04 91.14 6.80Q92.42 8.57 92.42 12.02Z" transform="translate(0, 4.864)"></path><line x1="101.424" y1="2%" x2="101.424" y2="98%" stroke="#000000" stroke-linecap="round"></line><g fill="#ead017" color="#ead017" transform="translate(110.424 0) scale(0.29)"><svg width="100.0" height="100.0" x="0.0" y="0.0" viewBox="0 0 100 100"><g><path d="M62,54.374V33.626C62,30.519,59.481,28,56.374,28H15.626C12.519,28,10,30.519,10,33.626v20.748   C10,57.481,12.519,60,15.626,60h40.747C59.481,60,62,57.481,62,54.374z M12,33.454c0-2,1.685-3.454,3.685-3.454h40.661   c2,0,3.655,1.454,3.655,3.454V49h-0.028H12.058H12V33.454z M15.685,58c-2,0-3.685-1.846-3.685-3.846V53h0.058h47.914H60v1.154   c0,2-1.655,3.846-3.655,3.846H15.685z"></path><polygon points="52,34.328 52,44.586 56.247,39.457  "></polygon><rect x="18" y="36" width="7" height="2"></rect><polygon points="32,41.714 32,41 18,41 18,43 32,43  "></polygon><path d="M95.459,52.065c0.55-0.57,0.863-1.234,0.863-1.958c0-2.233-2.938-3.917-6.833-3.917s-6.833,1.684-6.833,3.917   c0,0.724,0.313,1.388,0.863,1.958c-0.55,0.57-0.863,1.234-0.863,1.958c0,0.724,0.313,1.389,0.863,1.959   c-0.55,0.57-0.863,1.234-0.863,1.958s0.313,1.389,0.863,1.958c-0.55,0.57-0.863,1.234-0.863,1.958c0,0.037,0.007,0.073,0.009,0.109   c-0.267-0.032-0.538-0.053-0.814-0.053c-0.401,0-0.791,0.042-1.173,0.108c0.004-0.055,0.014-0.109,0.014-0.164   c0-0.724-0.313-1.389-0.863-1.958c0.55-0.57,0.863-1.234,0.863-1.958s-0.313-1.389-0.863-1.958c0.55-0.57,0.863-1.235,0.863-1.959   c0-0.724-0.313-1.388-0.863-1.958c0.55-0.57,0.863-1.234,0.863-1.958c0-0.724-0.313-1.389-0.863-1.958   c0.55-0.57,0.863-1.234,0.863-1.958s-0.313-1.389-0.863-1.958c0.55-0.57,0.863-1.234,0.863-1.958s-0.313-1.389-0.863-1.958   c0.55-0.57,0.863-1.235,0.863-1.959c0-0.724-0.313-1.388-0.863-1.958c0.55-0.57,0.863-1.234,0.863-1.958   c0-2.233-2.938-3.917-6.834-3.917c-3.896,0-6.833,1.684-6.833,3.917c0,0.724,0.313,1.388,0.863,1.958   c-0.55,0.57-0.863,1.234-0.863,1.958c0,0.724,0.313,1.389,0.863,1.959c-0.55,0.57-0.863,1.234-0.863,1.958s0.313,1.389,0.863,1.958   c-0.55,0.57-0.863,1.234-0.863,1.958s0.313,1.389,0.863,1.958c-0.55,0.57-0.863,1.234-0.863,1.958c0,0.724,0.313,1.388,0.863,1.958   c-0.55,0.57-0.863,1.234-0.863,1.958c0,0.724,0.313,1.389,0.863,1.959c-0.55,0.57-0.863,1.234-0.863,1.958s0.313,1.389,0.863,1.958   c-0.55,0.57-0.863,1.234-0.863,1.958s0.313,1.389,0.863,1.958c-0.55,0.57-0.863,1.234-0.863,1.958c0,0.724,0.313,1.388,0.863,1.958   c-0.55,0.57-0.863,1.234-0.863,1.958c0,2.233,2.938,3.917,6.833,3.917c1.042,0,2.013-0.124,2.88-0.343   c1.253,1.417,3.078,2.316,5.113,2.316c2.002,0,3.799-0.87,5.05-2.246c0.792,0.175,1.662,0.273,2.588,0.273   c3.896,0,6.833-1.684,6.833-3.917c0-0.724-0.313-1.388-0.863-1.958c0.55-0.57,0.863-1.234,0.863-1.958   c0-0.724-0.313-1.389-0.863-1.958c0.55-0.57,0.863-1.234,0.863-1.958s-0.313-1.389-0.863-1.958c0.55-0.57,0.863-1.234,0.863-1.958   s-0.313-1.389-0.863-1.958c0.55-0.57,0.863-1.235,0.863-1.959C96.322,53.299,96.009,52.634,95.459,52.065z M89.488,48.189   c2.906,0,4.833,1.154,4.833,1.917s-1.928,1.917-4.833,1.917s-4.833-1.153-4.833-1.917S86.583,48.189,89.488,48.189z M89.488,54.023   c1.633,0,3.094-0.299,4.245-0.807c0.369,0.276,0.588,0.561,0.588,0.807c0,0.763-1.928,1.917-4.833,1.917s-4.833-1.154-4.833-1.917   c0-0.246,0.219-0.532,0.589-0.807C86.394,53.724,87.855,54.023,89.488,54.023z M73.857,32.522c2.906,0,4.834,1.154,4.834,1.917   s-1.928,1.917-4.834,1.917s-4.833-1.153-4.833-1.917S70.951,32.522,73.857,32.522z M73.857,38.355c1.634,0,3.095-0.299,4.245-0.807   c0.369,0.276,0.589,0.561,0.589,0.807c0,0.763-1.928,1.917-4.834,1.917s-4.833-1.154-4.833-1.917c0-0.246,0.219-0.532,0.589-0.807   C70.763,38.056,72.223,38.355,73.857,38.355z M73.857,42.272c1.634,0,3.095-0.299,4.245-0.807c0.369,0.276,0.589,0.561,0.589,0.807   c0,0.763-1.928,1.917-4.834,1.917s-4.833-1.154-4.833-1.917c0-0.246,0.219-0.532,0.589-0.807   C70.763,41.973,72.224,42.272,73.857,42.272z M73.857,46.189c1.634,0,3.095-0.299,4.245-0.808c0.369,0.276,0.589,0.561,0.589,0.808   c0,0.763-1.928,1.917-4.834,1.917s-4.833-1.154-4.833-1.917c0-0.246,0.219-0.532,0.589-0.808   C70.763,45.89,72.223,46.189,73.857,46.189z M73.857,50.106c1.634,0,3.095-0.299,4.245-0.808c0.369,0.276,0.589,0.561,0.589,0.808   c0,0.763-1.928,1.917-4.834,1.917s-4.833-1.153-4.833-1.917c0-0.246,0.219-0.532,0.589-0.808   C70.763,49.807,72.223,50.106,73.857,50.106z M73.857,54.023c1.634,0,3.095-0.299,4.245-0.807c0.369,0.276,0.589,0.561,0.589,0.807   c0,0.763-1.928,1.917-4.834,1.917s-4.833-1.154-4.833-1.917c0-0.246,0.219-0.532,0.589-0.807   C70.763,53.724,72.223,54.023,73.857,54.023z M73.857,57.94c1.634,0,3.095-0.299,4.245-0.807c0.369,0.276,0.589,0.561,0.589,0.807   c0,0.763-1.928,1.917-4.834,1.917s-4.833-1.154-4.833-1.917c0-0.246,0.219-0.532,0.589-0.807   C70.763,57.641,72.224,57.94,73.857,57.94z M73.857,61.857c1.634,0,3.095-0.299,4.245-0.808c0.369,0.276,0.589,0.561,0.589,0.808   c0,0.763-1.928,1.917-4.834,1.917s-4.833-1.154-4.833-1.917c0-0.246,0.219-0.532,0.589-0.808   C70.763,61.558,72.223,61.857,73.857,61.857z M73.857,65.774c0.673,0,1.315-0.053,1.921-0.148c-0.316,0.612-0.54,1.278-0.658,1.981   c-0.398,0.049-0.814,0.084-1.263,0.084c-2.906,0-4.833-1.153-4.833-1.917c0-0.246,0.219-0.532,0.589-0.808   C70.763,65.475,72.223,65.774,73.857,65.774z M73.857,71.607c-2.906,0-4.833-1.154-4.833-1.917c0-0.246,0.219-0.532,0.589-0.807   c1.151,0.508,2.612,0.807,4.245,0.807c0.421,0,0.828-0.023,1.223-0.061c0.083,0.64,0.25,1.253,0.498,1.825   C75.053,71.546,74.483,71.607,73.857,71.607z M81.85,73.58c-2.665,0-4.833-2.168-4.833-4.833s2.168-4.833,4.833-4.833   s4.833,2.168,4.833,4.833S84.515,73.58,81.85,73.58z M94.322,69.69c0,0.763-1.928,1.917-4.833,1.917   c-0.498,0-0.955-0.043-1.391-0.104c0.256-0.578,0.431-1.198,0.518-1.846c0.286,0.019,0.575,0.032,0.873,0.032   c1.633,0,3.094-0.299,4.245-0.807C94.103,69.159,94.322,69.444,94.322,69.69z M94.322,65.774c0,0.763-1.928,1.917-4.833,1.917   c-0.314,0-0.611-0.019-0.902-0.044c-0.114-0.697-0.331-1.358-0.639-1.967c0.493,0.06,1.006,0.095,1.54,0.095   c1.633,0,3.094-0.299,4.245-0.808C94.103,65.242,94.322,65.528,94.322,65.774z M94.322,61.857c0,0.763-1.928,1.917-4.833,1.917   s-4.833-1.154-4.833-1.917c0-0.246,0.219-0.532,0.589-0.808c1.151,0.509,2.612,0.808,4.245,0.808s3.094-0.299,4.245-0.808   C94.103,61.325,94.322,61.611,94.322,61.857z M94.322,57.94c0,0.763-1.928,1.917-4.833,1.917s-4.833-1.154-4.833-1.917   c0-0.246,0.219-0.532,0.589-0.807c1.151,0.508,2.611,0.807,4.245,0.807s3.094-0.299,4.245-0.807   C94.103,57.408,94.322,57.694,94.322,57.94z"></path><path d="M58.146,63.857c-3.896,0-6.833,1.684-6.833,3.917c0,0.724,0.313,1.389,0.863,1.958c-0.55,0.57-0.863,1.234-0.863,1.958   c0,2.233,2.938,3.917,6.833,3.917s6.833-1.684,6.833-3.917c0-0.724-0.313-1.389-0.863-1.958c0.55-0.57,0.863-1.234,0.863-1.958   C64.98,65.541,62.042,63.857,58.146,63.857z M58.146,65.857c2.906,0,4.833,1.154,4.833,1.917s-1.928,1.917-4.833,1.917   s-4.833-1.154-4.833-1.917S55.241,65.857,58.146,65.857z M62.98,71.691c0,0.763-1.928,1.917-4.833,1.917s-4.833-1.153-4.833-1.917   c0-0.246,0.219-0.532,0.589-0.808c1.151,0.509,2.612,0.808,4.245,0.808s3.094-0.299,4.245-0.808   C62.761,71.159,62.98,71.445,62.98,71.691z"></path></g></svg></g></svg>